<svg width="355" height="256" viewBox="0 0 355 256" fill="none" xmlns="http://www.w3.org/2000/svg">
<path d="M3.29613 2.96262C2.47062 3.03209 1.85772 3.75761 1.92719 4.58312C1.99666 5.40863 2.72218 6.02152 3.54769 5.95205L3.29613 2.96262ZM330.416 253.95C330.958 254.576 331.906 254.644 332.532 254.102L342.734 245.26C343.36 244.717 343.427 243.77 342.885 243.144C342.342 242.518 341.395 242.45 340.769 242.993L331.701 250.852L323.841 241.784C323.299 241.158 322.352 241.09 321.726 241.633C321.099 242.175 321.032 243.123 321.574 243.749L330.416 253.95ZM3.42191 4.45734C3.54769 5.95205 3.54766 5.95206 3.54764 5.95206C3.54764 5.95206 3.54762 5.95206 3.54761 5.95206C3.5476 5.95206 3.5476 5.95206 3.54761 5.95206C3.54763 5.95206 3.5477 5.95205 3.54782 5.95204C3.54805 5.95202 3.54847 5.95199 3.54908 5.95194C3.5503 5.95184 3.55227 5.95167 3.55499 5.95145C3.56042 5.951 3.56886 5.9503 3.58028 5.94936C3.60311 5.9475 3.63787 5.94468 3.68441 5.94099C3.77747 5.93359 3.91765 5.92268 4.10375 5.90881C4.47597 5.88105 5.0319 5.84142 5.7622 5.79432L5.56911 2.80054C4.82855 2.84831 4.26262 2.88863 3.88067 2.91711C3.68969 2.93135 3.54471 2.94263 3.4469 2.9504C3.39799 2.95429 3.36088 2.95729 3.3357 2.95935C3.32311 2.96038 3.31351 2.96117 3.30691 2.96172C3.30361 2.962 3.30105 2.96221 3.29926 2.96236C3.29836 2.96243 3.29765 2.96249 3.29713 2.96254C3.29687 2.96256 3.29665 2.96258 3.29649 2.96259C3.2964 2.9626 3.29633 2.9626 3.29627 2.96261C3.29624 2.96261 3.2962 2.96261 3.29619 2.96262C3.29616 2.96262 3.29613 2.96262 3.42191 4.45734ZM10.7598 5.51983C12.1987 5.45262 13.8383 5.38513 15.6653 5.32361L15.5644 2.32531C13.7239 2.38729 12.0713 2.4553 10.6198 2.5231L10.7598 5.51983ZM20.639 5.18533C22.2291 5.15015 23.9173 5.12119 25.698 5.10105L25.6641 2.10124C23.8723 2.12151 22.1733 2.15065 20.5727 2.18606L20.639 5.18533ZM30.5174 5.07027C32.1544 5.06776 33.8542 5.07315 35.6134 5.08801L35.6387 2.08812C33.8694 2.07317 32.1596 2.06775 30.5128 2.07027L30.5174 5.07027ZM40.4233 5.15082C42.0716 5.1799 43.7641 5.21748 45.4986 5.26465L45.5801 2.26576C43.836 2.21832 42.1339 2.18053 40.4762 2.15128L40.4233 5.15082ZM50.3315 5.41791C51.9645 5.47705 53.6299 5.54481 55.326 5.62199L55.4624 2.62509C53.7568 2.54748 52.0822 2.47935 50.4401 2.41988L50.3315 5.41791ZM60.2558 5.8689C61.8692 5.95711 63.5073 6.05394 65.1687 6.16001L65.3599 3.16611C63.6892 3.05944 62.042 2.96208 60.4196 2.87338L60.2558 5.8689ZM70.2047 6.50533C71.7994 6.62224 73.4133 6.74776 75.0453 6.8824L75.2919 3.89256C73.6507 3.75716 72.0277 3.63093 70.424 3.51336L70.2047 6.50533ZM79.9946 7.31417C81.6323 7.46483 83.2864 7.62478 84.9559 7.7945L85.2593 4.80988C83.5801 4.63918 81.9165 4.47831 80.2694 4.32679L79.9946 7.31417ZM89.822 8.31252C91.4577 8.49453 93.1067 8.68604 94.7683 8.88747L95.1293 5.90927C93.4579 5.70665 91.7991 5.51401 90.1537 5.33092L89.822 8.31252ZM99.6889 9.50872C101.3 9.72027 102.921 9.94126 104.553 10.1721L104.973 7.20166C103.332 6.96943 101.7 6.74708 100.079 6.53426L99.6889 9.50872ZM109.475 10.8944C111.099 11.1413 112.732 11.398 114.372 11.665L114.854 8.70399C113.203 8.43528 111.56 8.17688 109.926 7.92844L109.475 10.8944ZM119.217 12.4798C120.839 12.7614 122.468 13.0532 124.103 13.3555L124.649 10.4055C123.003 10.1012 121.363 9.80745 119.73 9.52398L119.217 12.4798ZM128.981 14.2853C130.581 14.5996 132.187 14.9242 133.797 15.2592L134.408 12.3222C132.787 11.9848 131.171 11.658 129.56 11.3416L128.981 14.2853ZM138.639 16.2964C140.253 16.6519 141.871 17.0183 143.492 17.3957L144.172 14.4739C142.539 14.0937 140.91 13.7247 139.284 13.3666L138.639 16.2964ZM148.269 18.5384C149.864 18.9301 151.461 19.3328 153.06 19.7467L153.812 16.8425C152.2 16.4254 150.591 16.0196 148.984 15.625L148.269 18.5384ZM157.862 21.0225C159.442 21.4533 161.024 21.8953 162.605 22.3487L163.432 19.4649C161.838 19.0078 160.244 18.5623 158.651 18.1281L157.862 21.0225ZM167.339 23.7399C168.917 24.2152 170.495 24.7022 172.072 25.2012L172.977 22.3409C171.386 21.8377 169.795 21.3466 168.204 20.8674L167.339 23.7399ZM176.773 26.7252C178.33 27.2421 179.886 27.7709 181.44 28.312L182.426 25.4788C180.858 24.9329 179.289 24.3994 177.719 23.878L176.773 26.7252ZM186.095 29.9721C187.643 30.5373 189.189 31.1149 190.732 31.7053L191.804 28.9034C190.247 28.3074 188.686 27.7244 187.124 27.154L186.095 29.9721ZM195.319 33.5017C196.845 34.1132 198.367 34.7375 199.885 35.3748L201.046 32.6086C199.513 31.9649 197.976 31.3345 196.435 30.717L195.319 33.5017ZM204.428 37.3262C205.932 37.9873 207.431 38.6617 208.926 39.3495L210.18 36.6242C208.67 35.9291 207.154 35.2478 205.635 34.5798L204.428 37.3262ZM213.387 41.4501C214.869 42.1639 216.345 42.8914 217.815 43.6327L219.165 40.9541C217.679 40.2045 216.187 39.469 214.689 38.7474L213.387 41.4501ZM222.201 45.8963C223.653 46.6629 225.098 47.4435 226.536 48.2384L227.987 45.6128C226.532 44.8085 225.07 44.0187 223.602 43.2434L222.201 45.8963ZM230.828 50.6662C232.251 51.4899 233.667 52.3282 235.074 53.1812L236.629 50.6158C235.204 49.752 233.771 48.9034 232.331 48.0697L230.828 50.6662ZM239.259 55.7775C240.645 56.6574 242.022 57.5522 243.39 58.4622L245.052 55.9644C243.666 55.0424 242.271 54.136 240.867 53.2449L239.259 55.7775ZM247.466 61.2379C248.812 62.1768 250.149 63.131 251.475 64.1009L253.246 61.6791C251.901 60.6959 250.546 59.7286 249.182 58.7771L247.466 61.2379ZM255.414 67.0498C256.716 68.0484 258.007 69.0629 259.288 70.0933L261.169 67.7563C259.87 66.7109 258.56 65.682 257.239 64.6692L255.414 67.0498ZM263.094 73.2329C264.343 74.2885 265.581 75.3601 266.806 76.4479L268.798 74.2046C267.554 73.1004 266.298 72.0128 265.031 70.9417L263.094 73.2329ZM270.443 79.7595C271.643 80.8798 272.831 82.0166 274.005 83.1701L276.108 81.0298C274.915 79.8583 273.709 78.7039 272.49 77.5665L270.443 79.7595ZM277.471 86.6622C278.605 87.8357 279.727 89.0259 280.835 90.2329L283.045 88.2043C281.919 86.978 280.78 85.7689 279.627 84.5767L277.471 86.6622ZM284.116 93.9046C285.196 95.1455 286.262 96.4035 287.313 97.6788L289.628 95.7711C288.56 94.4749 287.477 93.1964 286.38 91.9353L284.116 93.9046ZM290.37 101.493C291.374 102.779 292.363 104.083 293.336 105.404L295.751 103.624C294.761 102.281 293.756 100.956 292.736 99.6477L290.37 101.493ZM296.212 109.419C297.147 110.763 298.066 112.124 298.97 113.502L301.479 111.857C300.56 110.455 299.625 109.072 298.675 107.706L296.212 109.419ZM301.591 117.62C302.449 119.01 303.292 120.417 304.118 121.841L306.713 120.335C305.873 118.887 305.016 117.457 304.144 116.044L301.591 117.62ZM306.548 126.165C307.324 127.591 308.085 129.034 308.829 130.494L311.501 129.131C310.745 127.648 309.973 126.181 309.184 124.731L306.548 126.165ZM310.988 134.875C311.692 136.352 312.379 137.846 313.05 139.357L315.792 138.139C315.11 136.604 314.412 135.086 313.696 133.585L310.988 134.875ZM315.012 143.94C315.626 145.429 316.224 146.933 316.806 148.454L319.608 147.382C319.017 145.837 318.409 144.309 317.785 142.796L315.012 143.94ZM318.494 153.04C319.04 154.584 319.57 156.145 320.084 157.722L322.936 156.793C322.415 155.192 321.877 153.608 321.322 152.039L318.494 153.04ZM321.573 162.501C322.031 164.038 322.474 165.59 322.9 167.157L325.795 166.37C325.362 164.779 324.913 163.204 324.448 161.644L321.573 162.501ZM324.126 171.881C324.519 173.471 324.895 175.076 325.256 176.696L328.184 176.044C327.819 174.402 327.437 172.774 327.038 171.162L324.126 171.881ZM326.287 181.602C326.601 183.184 326.9 184.78 327.183 186.39L330.137 185.871C329.851 184.239 329.548 182.622 329.23 181.018L326.287 181.602ZM327.973 191.186C328.221 192.798 328.453 194.424 328.671 196.065L331.645 195.671C331.425 194.01 331.189 192.363 330.938 190.729L327.973 191.186ZM329.275 201.029C329.458 202.665 329.625 204.316 329.777 205.98L332.764 205.708C332.611 204.024 332.442 202.353 332.257 200.696L329.275 201.029ZM330.169 210.786C330.285 212.4 330.387 214.027 330.475 215.667L333.471 215.507C333.382 213.849 333.279 212.203 333.161 210.57L330.169 210.786ZM330.694 220.626C330.753 222.292 330.797 223.97 330.825 225.662L333.825 225.611C333.796 223.901 333.752 222.205 333.693 220.521L330.694 220.626ZM330.867 230.573C330.867 232.173 330.854 233.783 330.827 235.405L333.827 235.454C333.854 233.816 333.867 232.189 333.867 230.573L330.867 230.573ZM330.708 240.306C330.655 241.951 330.588 243.608 330.507 245.276L333.504 245.42C333.585 243.737 333.652 242.064 333.706 240.403L330.708 240.306ZM330.225 250.316C330.171 251.161 330.114 252.01 330.053 252.861L333.046 253.075C333.107 252.216 333.165 251.36 333.219 250.506L330.225 250.316ZM3.17035 1.4679C1.51933 1.60684 0.29354 3.05788 0.432472 4.7089C0.571405 6.35992 2.02245 7.5857 3.67347 7.44677L3.17035 1.4679ZM329.282 254.933C330.368 256.185 332.262 256.32 333.514 255.235L353.918 237.552C355.17 236.467 355.305 234.572 354.22 233.32C353.135 232.068 351.24 231.933 349.988 233.018L331.852 248.736L316.133 230.6C315.048 229.347 313.154 229.212 311.902 230.297C310.65 231.382 310.514 233.277 311.599 234.529L329.282 254.933ZM3.42191 4.45734C3.67347 7.44677 3.67341 7.44678 3.67337 7.44678C3.67335 7.44678 3.67331 7.44679 3.67328 7.44679C3.67324 7.44679 3.6732 7.44679 3.67317 7.4468C3.67312 7.4468 3.67312 7.4468 3.67316 7.4468C3.67325 7.44679 3.67353 7.44677 3.67399 7.44673C3.67492 7.44665 3.6766 7.44651 3.67902 7.44631C3.68388 7.44591 3.69173 7.44526 3.70257 7.44437C3.72423 7.4426 3.75781 7.43988 3.80316 7.43628C3.89385 7.42907 4.03162 7.41835 4.21529 7.40465C4.58264 7.37726 5.13358 7.33798 5.85875 7.29121L5.47256 1.30365C4.72688 1.35175 4.15594 1.39242 3.76913 1.42127C3.57572 1.43569 3.42833 1.44715 3.32815 1.45511C3.27806 1.45909 3.23976 1.46219 3.21341 1.46434C3.20024 1.46542 3.19005 1.46626 3.18287 1.46686C3.17927 1.46716 3.17643 1.46739 3.17435 1.46757C3.1733 1.46766 3.17245 1.46773 3.17178 1.46778C3.17145 1.46781 3.17116 1.46783 3.17092 1.46786C3.1708 1.46787 3.1707 1.46787 3.1706 1.46788C3.17055 1.46789 3.17049 1.46789 3.17046 1.46789C3.1704 1.4679 3.17035 1.4679 3.42191 4.45734ZM10.8298 7.0182C12.2624 6.95128 13.8955 6.88406 15.7158 6.82276L15.5139 0.826162C13.6667 0.888361 12.0076 0.956641 10.5498 1.02474L10.8298 7.0182ZM20.6722 6.68496C22.257 6.64989 23.9398 6.62103 25.715 6.60095L25.6471 0.601338C23.8498 0.621664 22.1454 0.650896 20.5395 0.686431L20.6722 6.68496ZM30.5197 6.57027C32.1518 6.56777 33.8466 6.57314 35.6007 6.58796L35.6514 0.588171C33.8769 0.573185 32.1622 0.567744 30.5105 0.570275L30.5197 6.57027ZM40.3968 6.65058C42.0404 6.67958 43.7282 6.71706 45.4578 6.7641L45.6209 0.766315C43.8719 0.718745 42.165 0.680843 40.5027 0.651517L40.3968 6.65058ZM50.2773 6.91693C51.9056 6.97591 53.5664 7.04348 55.2578 7.12044L55.5305 1.12664C53.8203 1.04882 52.141 0.980495 50.4944 0.920861L50.2773 6.91693ZM60.1739 7.36667C61.7829 7.45463 63.4164 7.55119 65.0731 7.65696L65.4554 1.66916C63.7801 1.5622 62.1283 1.46456 60.5015 1.37561L60.1739 7.36667ZM70.095 8.00132C71.6852 8.1179 73.2946 8.24307 74.9219 8.37732L75.4153 2.39763C73.7694 2.26185 72.1418 2.13527 70.5337 2.01738L70.095 8.00132ZM79.8572 8.80786C81.4902 8.9581 83.1395 9.11758 84.8042 9.28681L85.411 3.31757C83.727 3.14638 82.0586 2.98505 80.4069 2.83309L79.8572 8.80786ZM89.6561 9.80331C91.287 9.9848 92.9312 10.1757 94.5878 10.3766L95.3098 4.42017C93.6335 4.21695 91.9697 4.02374 90.3196 3.84012L89.6561 9.80331ZM99.4936 10.996C101.1 11.2069 102.716 11.4272 104.342 11.6573L105.183 5.71646C103.537 5.48351 101.9 5.26049 100.275 5.04703L99.4936 10.996ZM109.249 12.3773C110.868 12.6234 112.496 12.8794 114.131 13.1456L115.095 7.22347C113.439 6.95391 111.79 6.6947 110.151 6.44548L109.249 12.3773ZM118.96 13.9577C120.577 14.2384 122.201 14.5292 123.831 14.8305L124.921 8.93045C123.27 8.62515 121.625 8.33047 119.987 8.04609L118.96 13.9577ZM128.692 15.7572C130.287 16.0704 131.887 16.3939 133.491 16.7278L134.714 10.8537C133.087 10.5151 131.465 10.1872 129.849 9.8697L128.692 15.7572ZM138.316 17.7612C139.924 18.1155 141.536 18.4806 143.151 18.8566L144.512 13.013C142.873 12.6314 141.238 12.2611 139.607 11.9017L138.316 17.7612ZM147.911 19.9951C149.5 20.3854 151.091 20.7865 152.684 21.1989L154.188 15.3903C152.57 14.9716 150.955 14.5644 149.342 14.1683L147.911 19.9951ZM157.467 22.4697C159.042 22.8988 160.617 23.339 162.192 23.7907L163.846 18.023C162.244 17.564 160.644 17.1168 159.045 16.6809L157.467 22.4697ZM166.906 25.1761C168.478 25.6495 170.049 26.1344 171.619 26.6313L173.429 20.9108C171.832 20.4054 170.234 19.9123 168.637 19.4311L166.906 25.1761ZM176.301 28.1487C177.851 28.6634 179.399 29.1899 180.946 29.7285L182.919 24.0623C181.345 23.5139 179.769 22.9781 178.191 22.4544L176.301 28.1487ZM185.581 31.3811C187.122 31.9437 188.66 32.5187 190.196 33.1062L192.34 27.5024C190.775 26.9037 189.208 26.318 187.638 25.7449L185.581 31.3811ZM194.761 34.894C196.279 35.5026 197.794 36.1238 199.305 36.7579L201.627 31.2256C200.086 30.5787 198.541 29.9451 196.993 29.3247L194.761 34.894ZM203.824 38.6994C205.32 39.3571 206.812 40.0279 208.299 40.7121L210.807 35.2616C209.289 34.5629 207.766 33.878 206.238 33.2066L203.824 38.6994ZM212.736 42.8015C214.209 43.5114 215.677 44.2349 217.139 44.9721L219.841 39.6148C218.346 38.861 216.846 38.1215 215.34 37.3961L212.736 42.8015ZM221.5 47.2228C222.944 47.9849 224.381 48.761 225.81 49.5511L228.713 44.3C227.249 43.491 225.779 42.6967 224.302 41.9169L221.5 47.2228ZM230.077 51.9644C231.491 52.7831 232.898 53.6163 234.297 54.464L237.407 49.333C235.973 48.464 234.532 47.6102 233.082 46.7715L230.077 51.9644ZM238.455 57.0438C239.832 57.9181 241.2 58.8071 242.559 59.7111L245.883 54.7155C244.488 53.7876 243.084 52.8753 241.671 51.9785L238.455 57.0438ZM246.608 62.4683C247.945 63.4009 249.273 64.3486 250.59 65.3118L254.131 60.4682C252.777 59.4783 251.413 58.5045 250.039 57.5467L246.608 62.4683ZM254.501 68.2401C255.794 69.2317 257.076 70.2389 258.347 71.2619L262.109 66.5877C260.801 65.5349 259.482 64.4988 258.152 63.4789L254.501 68.2401ZM262.126 74.3786C263.366 75.4263 264.594 76.4899 265.81 77.5696L269.794 73.083C268.541 71.9705 267.276 70.875 265.999 69.7961L262.126 74.3786ZM269.42 80.856C270.611 81.9677 271.789 83.0957 272.954 84.2403L277.159 79.9597C275.957 78.7792 274.742 77.616 273.514 76.47L269.42 80.856ZM276.392 87.7049C277.518 88.8692 278.631 90.0498 279.73 91.2471L284.15 87.19C283.016 85.954 281.867 84.7354 280.706 83.534L276.392 87.7049ZM282.985 94.8893C284.056 96.1201 285.113 97.3678 286.155 98.6327L290.785 94.8173C289.709 93.5106 288.617 92.2218 287.511 90.9507L282.985 94.8893ZM289.187 102.415C290.183 103.691 291.163 104.984 292.129 106.294L296.959 102.734C295.961 101.38 294.947 100.044 293.919 98.7252L289.187 102.415ZM294.981 110.276C295.908 111.608 296.819 112.958 297.715 114.324L302.733 111.034C301.807 109.621 300.864 108.226 299.906 106.849L294.981 110.276ZM300.315 118.408C301.166 119.787 302.001 121.182 302.821 122.594L308.01 119.582C307.163 118.123 306.3 116.681 305.42 115.256L300.315 118.408ZM305.231 126.882C306 128.296 306.754 129.727 307.492 131.175L312.838 128.45C312.076 126.954 311.297 125.476 310.501 124.014L305.231 126.882ZM309.634 135.52C310.332 136.985 311.014 138.467 311.679 139.965L317.163 137.531C316.476 135.983 315.772 134.453 315.051 132.94L309.634 135.52ZM313.625 144.512C314.234 145.989 314.828 147.481 315.405 148.99L321.009 146.846C320.413 145.289 319.801 143.749 319.172 142.224L313.625 144.512ZM317.08 153.54C317.622 155.072 318.148 156.621 318.657 158.186L324.363 156.329C323.838 154.716 323.296 153.119 322.736 151.539L317.08 153.54ZM320.136 162.929C320.59 164.455 321.029 165.996 321.453 167.551L327.242 165.976C326.806 164.374 326.354 162.788 325.886 161.216L320.136 162.929ZM322.67 172.241C323.06 173.819 323.434 175.413 323.791 177.021L329.648 175.719C329.28 174.065 328.896 172.426 328.495 170.802L322.67 172.241ZM324.816 181.894C325.128 183.465 325.424 185.05 325.705 186.65L331.615 185.612C331.326 183.969 331.022 182.341 330.701 180.726L324.816 181.894ZM326.49 191.414C326.736 193.016 326.968 194.632 327.184 196.262L333.132 195.474C332.91 193.803 332.673 192.145 332.42 190.501L326.49 191.414ZM327.785 201.195C327.966 202.821 328.132 204.462 328.283 206.116L334.258 205.572C334.104 203.878 333.933 202.197 333.748 200.53L327.785 201.195ZM328.673 210.894C328.788 212.499 328.89 214.117 328.977 215.748L334.969 215.427C334.879 213.76 334.776 212.105 334.657 210.462L328.673 210.894ZM329.195 220.679C329.253 222.335 329.297 224.005 329.326 225.687L335.325 225.585C335.295 223.867 335.251 222.161 335.192 220.468L329.195 220.679ZM329.367 230.573C329.367 232.164 329.354 233.767 329.327 235.381L335.327 235.479C335.354 233.832 335.367 232.197 335.367 230.573L329.367 230.573ZM329.209 240.258C329.156 241.895 329.089 243.544 329.009 245.204L335.002 245.493C335.084 243.801 335.151 242.121 335.205 240.452L329.209 240.258ZM328.728 250.22C328.675 251.062 328.618 251.907 328.557 252.754L334.542 253.182C334.603 252.319 334.662 251.459 334.716 250.602L328.728 250.22Z" fill="black"/>
</svg>
